<mxfile host="Electron" agent="Mozilla/5.0 (Windows NT 10.0; Win64; x64) AppleWebKit/537.36 (KHTML, like Gecko) draw.io/25.0.1 Chrome/128.0.6613.186 Electron/32.2.6 Safari/537.36" version="25.0.1">
  <diagram id="R2lEEEUBdFMjLlhIrx00" name="Page-1">
    <mxGraphModel dx="1290" dy="629" grid="1" gridSize="10" guides="1" tooltips="1" connect="1" arrows="1" fold="1" page="1" pageScale="1" pageWidth="850" pageHeight="1100" math="0" shadow="0" extFonts="Permanent Marker^https://fonts.googleapis.com/css?family=Permanent+Marker">
      <root>
        <mxCell id="0" />
        <mxCell id="1" parent="0" />
        <mxCell id="public.cart" value="public.cart" style="shape=table;startSize=30;container=1;collapsible=1;childLayout=tableLayout;fixedRows=1;rowLines=0;fontStyle=1;align=center;resizeLast=1;" parent="1" vertex="1">
          <mxGeometry x="990" y="400" width="120" height="60" as="geometry" />
        </mxCell>
        <mxCell id="public.cart.1" value="0" style="shape=partialRectangle;collapsible=0;dropTarget=0;pointerEvents=0;fillColor=none;points=[[0,0.5],[1,0.5]];portConstraint=eastwest;top=0;left=0;right=0;bottom=1;" parent="public.cart" vertex="1">
          <mxGeometry y="30" width="120" height="30" as="geometry" />
        </mxCell>
        <mxCell id="bf57038d-33cf-a19b-9d44-ea3351a5f53d" value="" style="shape=partialRectangle;overflow=hidden;connectable=0;fillColor=none;top=0;left=0;bottom=0;right=0;fontStyle=1;" parent="public.cart.1" vertex="1">
          <mxGeometry width="30" height="30" as="geometry">
            <mxRectangle width="30" height="30" as="alternateBounds" />
          </mxGeometry>
        </mxCell>
        <mxCell id="498ad664-ac95-0472-8ac2-09fa7c4ec262" value="" style="" parent="public.cart.1" vertex="1">
          <mxGeometry x="30" width="90" height="30" as="geometry">
            <mxRectangle width="90" height="30" as="alternateBounds" />
          </mxGeometry>
        </mxCell>
        <mxCell id="public.cart_item" value="public.cart_item" style="shape=table;startSize=30;container=1;collapsible=1;childLayout=tableLayout;fixedRows=1;rowLines=0;fontStyle=1;align=center;resizeLast=1;" parent="1" vertex="1">
          <mxGeometry x="1039.99" y="580" width="180.01" height="60" as="geometry" />
        </mxCell>
        <mxCell id="public.cart_item.1" value="0" style="shape=partialRectangle;collapsible=0;dropTarget=0;pointerEvents=0;fillColor=none;points=[[0,0.5],[1,0.5]];portConstraint=eastwest;top=0;left=0;right=0;bottom=1;" parent="public.cart_item" vertex="1">
          <mxGeometry y="30" width="180.01" height="30" as="geometry" />
        </mxCell>
        <mxCell id="3e524775-b62c-7d78-3fc7-d1bd926e9e8d" value="" style="shape=partialRectangle;overflow=hidden;connectable=0;fillColor=none;top=0;left=0;bottom=0;right=0;fontStyle=1;" parent="public.cart_item.1" vertex="1">
          <mxGeometry width="30" height="30" as="geometry">
            <mxRectangle width="30" height="30" as="alternateBounds" />
          </mxGeometry>
        </mxCell>
        <mxCell id="4f1f4632-f7a6-c82b-b12e-ebb635b830b6" value="" style="" parent="public.cart_item.1" vertex="1">
          <mxGeometry x="30" width="150.01" height="30" as="geometry">
            <mxRectangle width="150.01" height="30" as="alternateBounds" />
          </mxGeometry>
        </mxCell>
        <mxCell id="public.client" value="public.client" style="shape=table;startSize=72;container=1;collapsible=1;childLayout=tableLayout;fixedRows=1;rowLines=0;fontStyle=1;align=center;resizeLast=1;" parent="1" vertex="1">
          <mxGeometry x="760" y="388" width="150" height="102" as="geometry" />
        </mxCell>
        <mxCell id="public.client.1" value="0" style="shape=partialRectangle;collapsible=0;dropTarget=0;pointerEvents=0;fillColor=none;points=[[0,0.5],[1,0.5]];portConstraint=eastwest;top=0;left=0;right=0;bottom=1;" parent="public.client" vertex="1">
          <mxGeometry y="72" width="150" height="30" as="geometry" />
        </mxCell>
        <mxCell id="cca76f85-d6a5-900e-3948-b55e4f7d68cc" value="" style="shape=partialRectangle;overflow=hidden;connectable=0;fillColor=none;top=0;left=0;bottom=0;right=0;fontStyle=1;" parent="public.client.1" vertex="1">
          <mxGeometry width="30" height="30" as="geometry">
            <mxRectangle width="30" height="30" as="alternateBounds" />
          </mxGeometry>
        </mxCell>
        <mxCell id="89cca741-a77d-c983-8598-9beb140acbee" value="" style="" parent="public.client.1" vertex="1">
          <mxGeometry x="30" width="120" height="30" as="geometry">
            <mxRectangle width="120" height="30" as="alternateBounds" />
          </mxGeometry>
        </mxCell>
        <mxCell id="public.discount" value="public.discount" style="shape=table;startSize=30;container=1;collapsible=1;childLayout=tableLayout;fixedRows=1;rowLines=0;fontStyle=1;align=center;resizeLast=1;" parent="1" vertex="1">
          <mxGeometry x="1010" y="670" width="160" height="60" as="geometry" />
        </mxCell>
        <mxCell id="public.discount.1" value="0" style="shape=partialRectangle;collapsible=0;dropTarget=0;pointerEvents=0;fillColor=none;points=[[0,0.5],[1,0.5]];portConstraint=eastwest;top=0;left=0;right=0;bottom=1;" parent="public.discount" vertex="1">
          <mxGeometry y="30" width="160" height="30" as="geometry" />
        </mxCell>
        <mxCell id="7cb32ef6-32ff-e4a8-6c58-7aaf6a207d23" value="" style="shape=partialRectangle;overflow=hidden;connectable=0;fillColor=none;top=0;left=0;bottom=0;right=0;fontStyle=1;" parent="public.discount.1" vertex="1">
          <mxGeometry width="30" height="30" as="geometry">
            <mxRectangle width="30" height="30" as="alternateBounds" />
          </mxGeometry>
        </mxCell>
        <mxCell id="4efdf4da-e16e-f475-c87a-841fb924e06e" value="" style="" parent="public.discount.1" vertex="1">
          <mxGeometry x="30" width="130" height="30" as="geometry">
            <mxRectangle width="130" height="30" as="alternateBounds" />
          </mxGeometry>
        </mxCell>
        <mxCell id="public.employee" value="public.employee" style="shape=table;startSize=30;container=1;collapsible=1;childLayout=tableLayout;fixedRows=1;rowLines=0;fontStyle=1;align=center;resizeLast=1;" parent="1" vertex="1">
          <mxGeometry x="560" y="740" width="165" height="60" as="geometry" />
        </mxCell>
        <mxCell id="public.employee.1" value="0" style="shape=partialRectangle;collapsible=0;dropTarget=0;pointerEvents=0;fillColor=none;points=[[0,0.5],[1,0.5]];portConstraint=eastwest;top=0;left=0;right=0;bottom=1;" parent="public.employee" vertex="1">
          <mxGeometry y="30" width="165" height="30" as="geometry" />
        </mxCell>
        <mxCell id="858c41d1-e157-5eaf-2593-0f90bf880b73" value="" style="shape=partialRectangle;overflow=hidden;connectable=0;fillColor=none;top=0;left=0;bottom=0;right=0;fontStyle=1;" parent="public.employee.1" vertex="1">
          <mxGeometry width="30" height="30" as="geometry">
            <mxRectangle width="30" height="30" as="alternateBounds" />
          </mxGeometry>
        </mxCell>
        <mxCell id="16307c8e-de6d-7e75-ad14-b7c4743655b1" value="" style="" parent="public.employee.1" vertex="1">
          <mxGeometry x="30" width="135" height="30" as="geometry">
            <mxRectangle width="135" height="30" as="alternateBounds" />
          </mxGeometry>
        </mxCell>
        <mxCell id="public.employee_role" value="public.employee_role" style="shape=table;startSize=30;container=1;collapsible=1;childLayout=tableLayout;fixedRows=1;rowLines=0;fontStyle=1;align=center;resizeLast=1;" parent="1" vertex="1">
          <mxGeometry x="790" y="790" width="170" height="60" as="geometry" />
        </mxCell>
        <mxCell id="public.employee_role.1" value="0" style="shape=partialRectangle;collapsible=0;dropTarget=0;pointerEvents=0;fillColor=none;points=[[0,0.5],[1,0.5]];portConstraint=eastwest;top=0;left=0;right=0;bottom=1;" parent="public.employee_role" vertex="1">
          <mxGeometry y="30" width="170" height="30" as="geometry" />
        </mxCell>
        <mxCell id="cb473bbe-aebc-c88e-40dd-b046f438ac8d" value="" style="shape=partialRectangle;overflow=hidden;connectable=0;fillColor=none;top=0;left=0;bottom=0;right=0;fontStyle=1;" parent="public.employee_role.1" vertex="1">
          <mxGeometry width="30" height="30" as="geometry">
            <mxRectangle width="30" height="30" as="alternateBounds" />
          </mxGeometry>
        </mxCell>
        <mxCell id="c501dd28-7fbf-d606-5b71-a8c7cb8b8384" value="" style="" parent="public.employee_role.1" vertex="1">
          <mxGeometry x="30" width="140" height="30" as="geometry">
            <mxRectangle width="140" height="30" as="alternateBounds" />
          </mxGeometry>
        </mxCell>
        <mxCell id="public.order" value="public.order" style="shape=table;startSize=30;container=1;collapsible=1;childLayout=tableLayout;fixedRows=1;rowLines=0;fontStyle=1;align=center;resizeLast=1;" parent="1" vertex="1">
          <mxGeometry x="790" y="550" width="120" height="60" as="geometry" />
        </mxCell>
        <mxCell id="public.order.1" value="0" style="shape=partialRectangle;collapsible=0;dropTarget=0;pointerEvents=0;fillColor=none;points=[[0,0.5],[1,0.5]];portConstraint=eastwest;top=0;left=0;right=0;bottom=1;" parent="public.order" vertex="1">
          <mxGeometry y="30" width="120" height="30" as="geometry" />
        </mxCell>
        <mxCell id="8d0b7dd8-8297-8394-61cd-f69f5345d4ad" value="" style="shape=partialRectangle;overflow=hidden;connectable=0;fillColor=none;top=0;left=0;bottom=0;right=0;fontStyle=1;" parent="public.order.1" vertex="1">
          <mxGeometry width="30" height="30" as="geometry">
            <mxRectangle width="30" height="30" as="alternateBounds" />
          </mxGeometry>
        </mxCell>
        <mxCell id="4200548e-fd73-48ae-0464-061ff521ca18" value="" style="" parent="public.order.1" vertex="1">
          <mxGeometry x="30" width="90" height="30" as="geometry">
            <mxRectangle width="90" height="30" as="alternateBounds" />
          </mxGeometry>
        </mxCell>
        <mxCell id="public.order_item" value="public.order_item" style="shape=table;startSize=30;container=1;collapsible=1;childLayout=tableLayout;fixedRows=1;rowLines=0;fontStyle=1;align=center;resizeLast=1;" parent="1" vertex="1">
          <mxGeometry x="1000" y="490" width="120" height="60.01999999999998" as="geometry" />
        </mxCell>
        <mxCell id="public.order_item.5" value="120" style="shape=partialRectangle;collapsible=0;dropTarget=0;pointerEvents=0;fillColor=none;points=[[0,0.5],[1,0.5]];portConstraint=eastwest;top=0;left=0;right=0;bottom=1;" parent="public.order_item" vertex="1">
          <mxGeometry y="30" width="120" height="30" as="geometry" />
        </mxCell>
        <mxCell id="390f0ba6-2da6-c474-1fb8-18068e9227f5" value="" style="shape=partialRectangle;overflow=hidden;connectable=0;fillColor=none;top=0;left=0;bottom=0;right=0;fontStyle=1;" parent="public.order_item.5" vertex="1">
          <mxGeometry width="30" height="30" as="geometry">
            <mxRectangle width="30" height="30" as="alternateBounds" />
          </mxGeometry>
        </mxCell>
        <mxCell id="f8105e37-7919-1ac3-3d06-0e79aa6abb30" value="" style="" parent="public.order_item.5" vertex="1">
          <mxGeometry x="30" width="90" height="30" as="geometry">
            <mxRectangle width="90" height="30" as="alternateBounds" />
          </mxGeometry>
        </mxCell>
        <mxCell id="public.product" value="public.product" style="shape=table;startSize=30;container=1;collapsible=1;childLayout=tableLayout;fixedRows=1;rowLines=0;fontStyle=1;align=center;resizeLast=1;" parent="1" vertex="1">
          <mxGeometry x="790" y="630" width="160" height="60" as="geometry" />
        </mxCell>
        <mxCell id="public.product.1" value="0" style="shape=partialRectangle;collapsible=0;dropTarget=0;pointerEvents=0;fillColor=none;points=[[0,0.5],[1,0.5]];portConstraint=eastwest;top=0;left=0;right=0;bottom=1;" parent="public.product" vertex="1">
          <mxGeometry y="30" width="160" height="30" as="geometry" />
        </mxCell>
        <mxCell id="188d5e99-dea0-b4a4-70ec-4e8f5044d2bd" value="" style="shape=partialRectangle;overflow=hidden;connectable=0;fillColor=none;top=0;left=0;bottom=0;right=0;fontStyle=1;" parent="public.product.1" vertex="1">
          <mxGeometry width="30" height="30" as="geometry">
            <mxRectangle width="30" height="30" as="alternateBounds" />
          </mxGeometry>
        </mxCell>
        <mxCell id="f089610b-6e14-eabc-12bb-38d0be354fd5" value="" style="" parent="public.product.1" vertex="1">
          <mxGeometry x="30" width="130" height="30" as="geometry">
            <mxRectangle width="130" height="30" as="alternateBounds" />
          </mxGeometry>
        </mxCell>
        <mxCell id="public.product_discount" value="public.product_discount" style="shape=table;startSize=30;container=1;collapsible=1;childLayout=tableLayout;fixedRows=1;rowLines=0;fontStyle=1;align=center;resizeLast=1;" parent="1" vertex="1">
          <mxGeometry x="580" y="650" width="150" height="60" as="geometry" />
        </mxCell>
        <mxCell id="public.product_discount.1" value="0" style="shape=partialRectangle;collapsible=0;dropTarget=0;pointerEvents=0;fillColor=none;points=[[0,0.5],[1,0.5]];portConstraint=eastwest;top=0;left=0;right=0;bottom=1;" parent="public.product_discount" vertex="1">
          <mxGeometry y="30" width="150" height="30" as="geometry" />
        </mxCell>
        <mxCell id="a3ac1c4f-8318-bde7-80f9-4d9d0b1b0100" value="" style="shape=partialRectangle;overflow=hidden;connectable=0;fillColor=none;top=0;left=0;bottom=0;right=0;fontStyle=1;" parent="public.product_discount.1" vertex="1">
          <mxGeometry width="30" height="30" as="geometry">
            <mxRectangle width="30" height="30" as="alternateBounds" />
          </mxGeometry>
        </mxCell>
        <mxCell id="ce06cc65-fba1-e32b-da89-9b6897cea2bf" value="" style="" parent="public.product_discount.1" vertex="1">
          <mxGeometry x="30" width="120" height="30" as="geometry">
            <mxRectangle width="120" height="30" as="alternateBounds" />
          </mxGeometry>
        </mxCell>
        <mxCell id="public.review" value="public.review" style="shape=table;startSize=56;container=1;collapsible=1;childLayout=tableLayout;fixedRows=1;rowLines=0;fontStyle=1;align=center;resizeLast=1;" parent="1" vertex="1">
          <mxGeometry x="560" y="530" width="160" height="86" as="geometry" />
        </mxCell>
        <mxCell id="public.review.1" value="0" style="shape=partialRectangle;collapsible=0;dropTarget=0;pointerEvents=0;fillColor=none;points=[[0,0.5],[1,0.5]];portConstraint=eastwest;top=0;left=0;right=0;bottom=1;" parent="public.review" vertex="1">
          <mxGeometry y="56" width="160" height="30" as="geometry" />
        </mxCell>
        <mxCell id="6325071d-e097-440a-cd24-7de3c92a5d16" value="" style="shape=partialRectangle;overflow=hidden;connectable=0;fillColor=none;top=0;left=0;bottom=0;right=0;fontStyle=1;" parent="public.review.1" vertex="1">
          <mxGeometry width="30" height="30" as="geometry">
            <mxRectangle width="30" height="30" as="alternateBounds" />
          </mxGeometry>
        </mxCell>
        <mxCell id="823d0a6c-e9b0-79b3-37f3-bfa993df5711" value="" style="" parent="public.review.1" vertex="1">
          <mxGeometry x="30" width="130" height="30" as="geometry">
            <mxRectangle width="130" height="30" as="alternateBounds" />
          </mxGeometry>
        </mxCell>
        <mxCell id="7f88d44c-0e6f-9fd0-647b-7af53673f62e" value="" style="edgeStyle=entityRelationEdgeStyle;endArrow=ERzeroToMany;startArrow=ERone;endFill=1;startFill=0;" parent="1" source="public.cart.1" target="4f1f4632-f7a6-c82b-b12e-ebb635b830b6" edge="1">
          <mxGeometry width="100" height="100" relative="1" as="geometry">
            <mxPoint x="5.799999237060547" y="571.9031219482422" as="sourcePoint" />
            <mxPoint x="1070" y="660" as="targetPoint" />
            <Array as="points">
              <mxPoint x="1180" y="500" />
              <mxPoint x="1160" y="520" />
              <mxPoint x="1220" y="610" />
              <mxPoint x="1170" y="610" />
              <mxPoint x="1180" y="600" />
            </Array>
          </mxGeometry>
        </mxCell>
        <mxCell id="579c8419-5327-b476-413d-eb0933a75572" value="" style="edgeStyle=entityRelationEdgeStyle;endArrow=ERzeroToMany;startArrow=ERone;endFill=1;startFill=0;exitX=1;exitY=0.5;exitDx=0;exitDy=0;entryX=0;entryY=0.5;entryDx=0;entryDy=0;" parent="1" source="f089610b-6e14-eabc-12bb-38d0be354fd5" target="public.cart_item.1" edge="1">
          <mxGeometry width="100" height="100" relative="1" as="geometry">
            <mxPoint x="960.36" y="780.44" as="sourcePoint" />
            <mxPoint x="1040" y="710" as="targetPoint" />
          </mxGeometry>
        </mxCell>
        <mxCell id="6ec4d561-1659-1bb6-e436-e9e84968e859" value="" style="edgeStyle=entityRelationEdgeStyle;endArrow=ERzeroToMany;startArrow=ERone;endFill=1;startFill=0;entryX=1;entryY=0.25;entryDx=0;entryDy=0;" parent="1" source="public.employee_role.1" target="public.employee" edge="1">
          <mxGeometry width="100" height="100" relative="1" as="geometry">
            <mxPoint x="455.79999923706055" y="195.0281219482422" as="sourcePoint" />
            <mxPoint x="455.80000152203775" y="498.24992735961644" as="targetPoint" />
          </mxGeometry>
        </mxCell>
        <mxCell id="decf1c8f-1e95-f6b8-a5de-ef0c0f745e97" value="" style="edgeStyle=entityRelationEdgeStyle;endArrow=ERzeroToMany;startArrow=ERone;endFill=1;startFill=0;entryX=0.987;entryY=0.115;entryDx=0;entryDy=0;entryPerimeter=0;" parent="1" source="public.client.1" target="public.order" edge="1">
          <mxGeometry width="100" height="100" relative="1" as="geometry">
            <mxPoint x="230.80003232540068" y="127.38751682070824" as="sourcePoint" />
            <mxPoint x="230.80003232540068" y="578.2875054950672" as="targetPoint" />
          </mxGeometry>
        </mxCell>
        <mxCell id="95976771-021f-a422-0ac1-4d3fb3fba7e3" value="" style="edgeStyle=entityRelationEdgeStyle;endArrow=ERzeroToMany;startArrow=ERone;endFill=1;startFill=0;entryX=0;entryY=0.5;entryDx=0;entryDy=0;" parent="1" source="public.order.1" target="public.order_item.5" edge="1">
          <mxGeometry width="100" height="100" relative="1" as="geometry">
            <mxPoint x="230.80003232540068" y="553.4875715662153" as="sourcePoint" />
            <mxPoint x="1000" y="575" as="targetPoint" />
          </mxGeometry>
        </mxCell>
        <mxCell id="3e2ce084-0d1a-ac25-41f9-bfa620a51855" value="" style="edgeStyle=entityRelationEdgeStyle;endArrow=ERzeroToMany;startArrow=ERone;endFill=1;startFill=0;entryX=0;entryY=0.5;entryDx=0;entryDy=0;" parent="1" source="public.product.1" target="public.order_item.5" edge="1">
          <mxGeometry width="100" height="100" relative="1" as="geometry">
            <mxPoint x="680.8000633736349" y="497.8750453916044" as="sourcePoint" />
            <mxPoint x="1000" y="575" as="targetPoint" />
          </mxGeometry>
        </mxCell>
        <mxCell id="cf0f3145-d94f-c67b-d1ae-4e4e3b709920" value="" style="edgeStyle=entityRelationEdgeStyle;endArrow=ERzeroToMany;startArrow=ERone;endFill=1;startFill=0;entryX=0.998;entryY=0.053;entryDx=0;entryDy=0;entryPerimeter=0;" parent="1" source="public.product_category.1" target="public.product" edge="1">
          <mxGeometry width="100" height="100" relative="1" as="geometry">
            <mxPoint x="680.8000633736349" y="195.0249890092931" as="sourcePoint" />
            <mxPoint x="680.8000633736349" y="528.6874523274433" as="targetPoint" />
          </mxGeometry>
        </mxCell>
        <mxCell id="c1822f66-f731-0c93-45ba-f53ba8e53f74" value="" style="edgeStyle=entityRelationEdgeStyle;endArrow=ERzeroToMany;startArrow=ERone;endFill=1;startFill=0;entryX=1;entryY=0.5;entryDx=0;entryDy=0;" parent="1" source="public.product.1" target="public.product_discount.1" edge="1">
          <mxGeometry width="100" height="100" relative="1" as="geometry">
            <mxPoint x="680.8000633736349" y="497.8750453916044" as="sourcePoint" />
            <mxPoint x="1079.5499992370605" y="930.3562469482422" as="targetPoint" />
          </mxGeometry>
        </mxCell>
        <mxCell id="33add291-8175-aaa8-c101-1d92ae9d9b18" value="" style="edgeStyle=entityRelationEdgeStyle;endArrow=ERzeroToMany;startArrow=ERone;endFill=1;startFill=0;entryX=1;entryY=0.5;entryDx=0;entryDy=0;" parent="1" source="public.client.1" target="public.review.1" edge="1">
          <mxGeometry width="100" height="100" relative="1" as="geometry">
            <mxPoint x="230.80003232540068" y="127.38751682070824" as="sourcePoint" />
            <mxPoint x="854.5500725305792" y="924.3375663404884" as="targetPoint" />
          </mxGeometry>
        </mxCell>
        <mxCell id="0132aab0-11b1-345c-dba3-91ad61b230d2" value="" style="edgeStyle=entityRelationEdgeStyle;endArrow=ERzeroToMany;startArrow=ERone;endFill=1;startFill=0;entryX=1;entryY=0.5;entryDx=0;entryDy=0;" parent="1" source="public.product.1" target="public.review.1" edge="1">
          <mxGeometry width="100" height="100" relative="1" as="geometry">
            <mxPoint x="680.8000633736349" y="497.8750453916044" as="sourcePoint" />
            <mxPoint x="854.5500725305792" y="899.5373544467566" as="targetPoint" />
          </mxGeometry>
        </mxCell>
        <mxCell id="VqQebJ0HGXR-MDs0Irp4-1" value="" style="edgeStyle=entityRelationEdgeStyle;endArrow=ERzeroToMany;startArrow=ERone;endFill=1;startFill=0;entryX=1;entryY=0.5;entryDx=0;entryDy=0;" parent="1" source="public.discount.1" target="ce06cc65-fba1-e32b-da89-9b6897cea2bf" edge="1">
          <mxGeometry width="100" height="100" relative="1" as="geometry">
            <mxPoint x="924" y="1868" as="sourcePoint" />
            <mxPoint x="745" y="1542" as="targetPoint" />
          </mxGeometry>
        </mxCell>
        <mxCell id="public.product_category" value="public.product_category" style="shape=table;startSize=30;container=1;collapsible=1;childLayout=tableLayout;fixedRows=1;rowLines=0;fontStyle=1;align=center;resizeLast=1;" parent="1" vertex="1">
          <mxGeometry x="810" y="720" width="150" height="60" as="geometry" />
        </mxCell>
        <mxCell id="public.product_category.1" value="0" style="shape=partialRectangle;collapsible=0;dropTarget=0;pointerEvents=0;fillColor=none;points=[[0,0.5],[1,0.5]];portConstraint=eastwest;top=0;left=0;right=0;bottom=1;" parent="public.product_category" vertex="1">
          <mxGeometry y="30" width="150" height="30" as="geometry" />
        </mxCell>
        <mxCell id="51972577-c5fe-9786-ce7f-0e6c07eb4b9c" value="" style="shape=partialRectangle;overflow=hidden;connectable=0;fillColor=none;top=0;left=0;bottom=0;right=0;fontStyle=1;" parent="public.product_category.1" vertex="1">
          <mxGeometry width="30" height="30" as="geometry">
            <mxRectangle width="30" height="30" as="alternateBounds" />
          </mxGeometry>
        </mxCell>
        <mxCell id="f6f21eb3-f198-789b-9ac8-50471a3fd036" value="" style="" parent="public.product_category.1" vertex="1">
          <mxGeometry x="30" width="120" height="30" as="geometry">
            <mxRectangle width="120" height="30" as="alternateBounds" />
          </mxGeometry>
        </mxCell>
        <mxCell id="public.review_log" value="public.review_log" style="shape=table;startSize=72;container=1;collapsible=1;childLayout=tableLayout;fixedRows=1;rowLines=0;fontStyle=1;align=center;resizeLast=1;" parent="1" vertex="1">
          <mxGeometry x="582.5" y="400" width="120" height="102" as="geometry">
            <mxRectangle x="425" y="220" width="130" height="30" as="alternateBounds" />
          </mxGeometry>
        </mxCell>
        <mxCell id="public.review_log.6" value="150" style="" parent="public.review_log" vertex="1">
          <mxGeometry y="72" width="120" height="30" as="geometry" />
        </mxCell>
        <mxCell id="fa999f79-19b5-d96f-1cd4-488d883279e3" value="" style="" parent="public.review_log.6" vertex="1">
          <mxGeometry width="120" height="30" as="geometry">
            <mxRectangle width="120" height="30" as="alternateBounds" />
          </mxGeometry>
        </mxCell>
        <mxCell id="R2Ri939kBG6H8C_cRLbL-18" value="" style="edgeStyle=entityRelationEdgeStyle;fontSize=12;html=1;endArrow=ERmandOne;startArrow=ERmandOne;rounded=0;entryX=0;entryY=0.5;entryDx=0;entryDy=0;exitX=1;exitY=0.5;exitDx=0;exitDy=0;" edge="1" parent="1" source="public.client" target="public.cart.1">
          <mxGeometry width="100" height="100" relative="1" as="geometry">
            <mxPoint x="950" y="690" as="sourcePoint" />
            <mxPoint x="1050" y="590" as="targetPoint" />
          </mxGeometry>
        </mxCell>
      </root>
    </mxGraphModel>
  </diagram>
</mxfile>
